 http://www.imdb.com/title/tt1720616/

Friends With Kids is a poignant ensemble comedy about a close-knit circle of friends at that moment in life when children arrive and everything changes. There are big laughs and unexpected emotional truths as the last two singles in the group, out of step with their married pals, resolve to have a kid together… and date other people. Stars Kristen Wiig, Megan Fox, Jon Hamm, Maya Rudolph and Edward Burns.

Format : MPEG-4
Format profile : Base Media
Codec ID : isom
File size : 1.11 GiB
Duration : 1h 44mn
Overall bit rate mode : Variable
Overall bit rate : 1 517 Kbps
Movie name : Friends With Kids1
Performer : MacX-DVD-Rip
Genre : Classic
Writing application : DigiArty AV Encoder Core

Video
ID : 1
Format : MPEG-4 Visual
Format profile : Simple@L1
Format settings, BVOP : No
Format settings, QPel : No
Format settings, GMC : No warppoints
Format settings, Matrix : Default (H.263)
Codec ID : 20
Duration : 1h 44mn
Bit rate : 1 385 Kbps
Width : 720 pixels
Height : 404 pixels
Display aspect ratio : 16:9
Frame rate mode : Constant
Frame rate : 29.970 fps
Color space : YUV
Chroma subsampling : 4:2:0
Bit depth : 8 bits
Scan type : Progressive
Compression mode : Lossy
Bits/(Pixel*Frame) : 0.159
Stream size : 1.01 GiB (91%)
Writing library : DigiArty AV Encoder Core

Audio
ID : 2
Format : AAC
Format/Info : Advanced Audio Codec
Format profile : LC
Codec ID : 40
Duration : 1h 44mn
Bit rate mode : Variable
Bit rate : 128 Kbps
Channel(s) : 2 channels
Channel positions : Front: L R
Sampling rate : 48.0 KHz
Compression mode : Lossy
Stream size : 95.5 MiB (8%)

screens: 
http://img840.imageshack.us/img840/6454/vlcsnap2011120502h19m32.png 
http://img802.imageshack.us/img802/6840/vlcsnap2011120502h19m36.png 
http://img811.imageshack.us/img811/3438/vlcsnap2011120502h19m39.png 
http://img97.imageshack.us/img97/5453/vlcsnap2011120502h19m42.png 
http://img827.imageshack.us/img827/4319/vlcsnap2011120502h19m53.png
bre

